# xmcd CD database file
#
# Track frame offsets:
#	150
#	19818
#	37928
#	50631
#	60177
#	79359
#	98695
#	118959
#	140104
#	162974
#	177958
#	196629
#	221452
#	242825
#	265890
#	285663
#	301325
#
# Disc length: 4261 seconds
#
# Revision: 0
# Processed by: cddbd v1.5.2PL0 Copyright (c) Steve Scherf et al.
# Submitted via: CDex 1.51
#
DISCID=ed10a311
DTITLE=Musica Tipico Dominicana - Cabarete
DYEAR=2001
DGENRE=Merengue
TTITLE0=Rikarena - Cuanto amor se dana
TTITLE1=Andy Pena - El burro
TTITLE2=Pipe - Dos pinas
TTITLE3=Azul Azul - La Bomba
TTITLE4=Los Toros Band - Mi nina
TTITLE5=K Libre - Dibu dibay
TTITLE6=La Maquina - Escuchame
TTITLE7=Tono Rosario - Desnudate mujer
TTITLE8=Eddy Herrera - Pegame tu vicio
TTITLE9=Juan Luis Guerra 440 - Mi pc
TTITLE10=Tulile - La cuquita
TTITLE11=Tono Rosario - Sueltame
TTITLE12=Fernandito - Te amo solo
TTITLE13=Sandy - Homejane a papo
TTITLE14=Rikarena - Paran pan pan
TTITLE15=Juan Luis Guerra 440 - Vale la pena
TTITLE16=DJ Flaco - La historia de dj
EXTD=YEAR: 2001
EXTT0=
EXTT1=
EXTT2=
EXTT3=
EXTT4=
EXTT5=
EXTT6=
EXTT7=
EXTT8=
EXTT9=
EXTT10=
EXTT11=
EXTT12=
EXTT13=
EXTT14=
EXTT15=
EXTT16=
PLAYORDER=
